<?xml version="1.0" encoding="utf-8"?>
<!-- Generator: Adobe Illustrator 15.1.0, SVG Export Plug-In . SVG Version: 6.00 Build 0)  -->
<!DOCTYPE svg PUBLIC "-//W3C//DTD SVG 1.1//EN" "http://www.w3.org/Graphics/SVG/1.1/DTD/svg11.dtd">
<svg version="1.1" xmlns="http://www.w3.org/2000/svg" xmlns:xlink="http://www.w3.org/1999/xlink" x="0px" y="0px" width="500px"
	 height="500px" viewBox="0 0 500 500" enable-background="new 0 0 500 500" xml:space="preserve">
<g id="hashes">
	<circle fill="none" stroke="#000000" stroke-miterlimit="10" cx="250" cy="250" r="250"/>
	<g>
		<g>
			<line fill="none" stroke="#000000" stroke-width="4" stroke-miterlimit="10" x1="250" y1="0" x2="250" y2="500"/>
			<line fill="none" stroke="#000000" stroke-width="4" stroke-miterlimit="10" x1="0" y1="251" x2="500" y2="251"/>
		</g>
		<g>
			<g>
				<line fill="none" stroke="#000000" stroke-width="2" stroke-miterlimit="10" x1="125" y1="33.494" x2="375" y2="466.507"/>
				
					<line fill="none" stroke="#000000" stroke-width="2" stroke-miterlimit="10" x1="33.994" y1="375.866" x2="467.006" y2="125.866"/>
			</g>
			<g>
				
					<line fill="none" stroke="#000000" stroke-width="2" stroke-miterlimit="10" x1="33.561" y1="126.25" x2="466.573" y2="376.25"/>
				
					<line fill="none" stroke="#000000" stroke-width="2" stroke-miterlimit="10" x1="125.933" y1="468.257" x2="375.933" y2="35.244"/>
			</g>
		</g>
	</g>
	<circle fill="#FFFFFF" cx="250" cy="250" r="212.5"/>
</g>
<g id="numbers">
	<g>
		<path d="M337.514,97.121l0.641-1.445h1.658c1.451,0,2.354-0.225,2.702-0.678c0.347-0.451,0.813-2.014,1.398-4.688l2.346-11.85
			c0.33-1.711,0.498-2.866,0.498-3.468c0-0.727-0.696-1.147-2.086-1.259l-2.156-0.165l-0.023-1.445l10.259-1.303l-1.801,7.589
			l-2.322,11.716c-0.474,2.483-0.71,3.834-0.71,4.056c0,0.998,0.679,1.495,2.039,1.495h2.108l0.07,1.445H337.514z"/>
		<path d="M407.307,169.622l1.282-3.792c11.88-6.35,17.818-11.705,17.818-16.064c0-1.406-0.502-2.592-1.505-3.555
			c-1.004-0.963-2.238-1.445-3.709-1.445c-3.805,0-6.207,1.752-7.202,5.26h-1.445l0.736-5.426c3.331-0.854,6.182-1.28,8.552-1.28
			c2.94,0,5.271,0.557,7.002,1.67c1.729,1.114,2.594,2.61,2.594,4.491c0,2.021-0.813,3.783-2.439,5.283
			c-1.627,1.5-5.515,4.068-11.656,7.701l-5.735,3.365h17.888l-1.491,3.792H407.307z"/>
		<path d="M434.578,266.808l3.104-3.151c2.402,2.196,4.852,3.294,7.349,3.294c2.069,0,3.844-0.718,5.33-2.157
			c1.482-1.437,2.225-3.152,2.225-5.142c0-2.181-0.9-3.954-2.697-5.32c-1.803-1.366-4.143-2.049-7.016-2.049
			c-0.505,0-1.161,0.047-1.967,0.143l1.659-3.65c1.437,0,2.818,0.055,4.146,0.166c2.244-0.553,4.106-1.567,5.592-3.044
			c1.486-1.477,2.228-3.038,2.228-4.68c0-1.454-0.498-2.646-1.492-3.578c-0.997-0.932-2.275-1.398-3.841-1.398
			c-3.601,0-5.86,1.752-6.775,5.26h-1.469l0.78-5.308c3.412-0.932,6.352-1.397,8.814-1.397c2.593,0,4.675,0.494,6.246,1.48
			c1.569,0.988,2.354,2.295,2.354,3.921c0,3.491-3.221,6.564-9.666,9.218c4.899,1.516,7.345,4.289,7.345,8.317
			c0,2.922-1.355,5.481-4.062,7.677c-2.711,2.195-5.883,3.294-9.514,3.294C440.251,268.704,437.359,268.071,434.578,266.808z"/>
		<path d="M419.676,352.614L402,351.861l0.404-1.967l23.932-22.105l2.465-0.568l-4.432,22.359l7.061,0.314l-1.066,3.176
			l-6.611-0.281c-0.346,2.423-0.52,4.092-0.52,5.003c0,0.864,0.609,1.298,1.824,1.298h2.059l0.121,1.445H413.02l0.662-1.445h2.061
			c1.154,0,1.908-0.291,2.264-0.875C418.361,357.633,418.918,355.766,419.676,352.614z M420.32,349.4l3.336-16.773l-17.936,16.128
			L420.32,349.4z"/>
		<path d="M337.513,433.053l2.916-3.057c1.77,1.943,4.045,2.914,6.824,2.914c2.527,0,4.602-0.887,6.221-2.658
			c1.617-1.771,2.43-4.05,2.43-6.834c0-4.412-3.043-6.619-9.125-6.619c-1.137,0-2.406,0.126-3.814,0.378l3.104-15.567h18.41
			l-1.607,4.1h-15.451l-2.086,7.295c1.186-0.203,2.236-0.307,3.152-0.307c3.57,0,6.471,0.838,8.697,2.514
			c2.227,1.674,3.34,3.861,3.34,6.563c0,3.349-1.572,6.382-4.717,9.1c-3.141,2.717-6.656,4.075-10.543,4.075
			C342.734,434.948,340.152,434.315,337.513,433.053z"/>
		<path d="M261.67,430.906h-1.471c0.098-0.537,0.145-0.939,0.145-1.209c0-1.011-0.473-1.84-1.422-2.487
			c-0.949-0.648-2.172-0.972-3.672-0.972c-3.004,0-5.783,1.607-8.34,4.824c-2.561,3.215-4.078,7.004-4.549,11.365
			c3.141-4.174,6.609-6.261,10.398-6.261c2.213,0,4.053,0.743,5.521,2.228s2.203,3.35,2.203,5.592c0,3.76-1.361,7.1-4.086,10.022
			c-2.727,2.923-5.857,4.384-9.398,4.384c-3.063,0-5.498-1.062-7.307-3.188c-1.809-2.124-2.715-4.986-2.715-8.59
			c0-5.813,1.992-10.954,5.975-15.424c3.98-4.471,8.553-6.706,13.719-6.706c1.941,0,4.059,0.466,6.35,1.397L261.67,430.906z
			 M248.355,456.947c2.115,0,3.936-1.089,5.461-3.262c1.523-2.174,2.287-4.781,2.287-7.817c0-4.903-1.844-7.356-5.521-7.356
			c-2.371,0-4.408,0.994-6.115,2.978c-1.707,1.984-2.559,4.354-2.559,7.107c0,2.435,0.604,4.437,1.813,6.003
			S246.473,456.947,248.355,456.947z"/>
		<path d="M149.48,434.948c0.633-3.476,2.568-7.093,5.807-10.853l14.621-15.521l2.557-2.865h-19.5l1.658-4.1h22.299l-1.068,2.653
			c-12.982,13.839-19.918,23.868-20.803,30.093L149.48,434.948z"/>
		<path d="M80.824,346.835l-0.451-0.309c-2.211-1.548-3.318-3.578-3.318-6.09c0-2.496,1.24-4.706,3.721-6.636
			c2.48-1.926,5.324-2.889,8.533-2.889c2.273,0,4.123,0.539,5.555,1.621c1.428,1.082,2.145,2.478,2.145,4.184
			c0,3.254-2.844,6.459-8.531,9.62c3.949,2.479,5.926,5.165,5.926,8.057c0,2.653-1.393,5.055-4.172,7.202
			c-2.779,2.148-5.9,3.224-9.361,3.224c-2.621,0-4.818-0.714-6.586-2.144c-1.77-1.432-2.654-3.213-2.654-5.345
			C71.629,353.619,74.693,350.119,80.824,346.835z M82.008,347.83c-3.807,2.037-5.711,4.991-5.711,8.861
			c0,1.943,0.613,3.49,1.834,4.645c1.229,1.154,2.865,1.73,4.92,1.73c1.848,0,3.455-0.676,4.824-2.026
			c1.363-1.351,2.045-2.935,2.045-4.75c0-2.229-1.973-4.621-5.922-7.181L82.008,347.83z M87.031,345.484
			c4.012-2.48,6.018-5.087,6.018-7.821c0-1.421-0.529-2.61-1.588-3.565c-1.057-0.955-2.375-1.434-3.955-1.434
			c-1.754,0-3.248,0.602-4.48,1.802c-1.23,1.2-1.846,2.661-1.846,4.383c0,1.865,1.428,3.736,4.287,5.616L87.031,345.484z"/>
		<path d="M38.85,260.236h1.471l-0.025,0.975c0,2.471,1.693,3.705,5.072,3.705c2.986,0,5.762-1.613,8.33-4.841
			c2.566-3.227,4.086-7.033,4.563-11.413c-3.162,4.201-6.66,6.302-10.5,6.302c-2.244,0-4.107-0.754-5.592-2.263
			c-1.484-1.508-2.229-3.4-2.229-5.675c0-3.823,1.367-7.207,4.1-10.153c2.734-2.947,5.869-4.419,9.406-4.419
			c3.066,0,5.504,1.059,7.313,3.175s2.711,4.983,2.711,8.601c0,5.829-1.984,10.975-5.957,15.438
			c-3.975,4.461-8.561,6.693-13.758,6.693c-1.594,0-3.678-0.373-6.254-1.119L38.85,260.236z M52.145,234.206
			c-2.146,0-3.984,1.059-5.51,3.176c-1.525,2.117-2.287,4.66-2.287,7.63c0,4.881,1.875,7.322,5.617,7.322
			c2.432,0,4.514-0.968,6.244-2.903s2.594-4.252,2.594-6.954c0-2.401-0.623-4.379-1.873-5.936
			C55.682,234.985,54.086,234.206,52.145,234.206z"/>
		<path d="M61.957,172.742l0.639-1.445h1.658c1.455,0,2.355-0.225,2.701-0.678c0.35-0.451,0.816-2.014,1.398-4.688l2.346-11.85
			c0.334-1.711,0.498-2.866,0.498-3.468c0-0.727-0.697-1.147-2.084-1.259l-2.158-0.165l-0.023-1.445l10.26-1.303l-1.799,7.589
			l-2.322,11.716c-0.477,2.483-0.713,3.834-0.713,4.056c0,0.998,0.682,1.495,2.039,1.495h2.109l0.07,1.445H61.957z"/>
		<path d="M95.675,173.334c-3.193,0-5.715-0.92-7.572-2.761c-1.855-1.84-2.785-4.341-2.785-7.499c0-4.63,1.482-8.558,4.445-11.79
			c2.959-3.23,6.559-4.845,10.791-4.845c3.285,0,5.863,0.896,7.738,2.689c1.869,1.793,2.807,4.26,2.807,7.404
			c0,4.723-1.482,8.705-4.453,11.942C103.677,171.715,100.017,173.334,95.675,173.334z M95.966,171.889
			c2.721,0,4.857-0.996,6.404-2.988c1.064-1.343,1.992-3.411,2.795-6.203c0.797-2.791,1.197-5.348,1.197-7.672
			c0-4.761-2.02-7.14-6.053-7.14c-3.004,0-5.465,1.605-7.381,4.813c-1.916,3.212-2.873,7.323-2.873,12.337
			C90.056,169.605,92.029,171.889,95.966,171.889z"/>
		<path d="M138.542,94.103l0.639-1.445h1.656c1.459,0,2.357-0.225,2.705-0.678c0.346-0.451,0.814-2.014,1.396-4.688l2.346-11.85
			c0.334-1.711,0.498-2.866,0.498-3.468c0-0.727-0.695-1.147-2.084-1.259l-2.156-0.165l-0.025-1.445l10.26-1.303l-1.799,7.589
			l-2.322,11.716c-0.475,2.483-0.713,3.834-0.713,4.056c0,0.998,0.68,1.495,2.041,1.495h2.107l0.072,1.445H138.542z"/>
		<path d="M159.583,94.103l0.639-1.445h1.66c1.451,0,2.354-0.225,2.703-0.678c0.344-0.451,0.813-2.014,1.396-4.688l2.346-11.85
			c0.33-1.711,0.496-2.866,0.496-3.468c0-0.727-0.693-1.147-2.084-1.259l-2.154-0.165l-0.025-1.445l10.26-1.303l-1.801,7.589
			l-2.322,11.716c-0.475,2.483-0.711,3.834-0.711,4.056c0,0.998,0.68,1.495,2.039,1.495h2.105l0.074,1.445H159.583z"/>
		<path d="M227.716,65.801l0.637-1.445h1.658c1.455,0,2.357-0.225,2.703-0.678c0.348-0.451,0.814-2.014,1.398-4.688l2.346-11.85
			c0.332-1.711,0.496-2.866,0.496-3.468c0-0.727-0.695-1.147-2.086-1.259l-2.154-0.165l-0.023-1.445l10.258-1.303l-1.799,7.589
			l-2.322,11.716c-0.477,2.483-0.713,3.834-0.713,4.056c0,0.998,0.684,1.495,2.039,1.495h2.109l0.07,1.445H227.716z"/>
		<path d="M248.163,65.801l1.279-3.792c11.881-6.35,17.82-11.705,17.82-16.064c0-1.406-0.502-2.592-1.506-3.555
			c-1.002-0.963-2.238-1.445-3.709-1.445c-3.807,0-6.207,1.752-7.201,5.26h-1.447l0.734-5.426c3.332-0.854,6.186-1.28,8.557-1.28
			c2.936,0,5.27,0.557,7,1.67c1.73,1.114,2.594,2.61,2.594,4.491c0,2.021-0.813,3.783-2.441,5.283
			c-1.625,1.5-5.512,4.068-11.658,7.701l-5.732,3.365h17.891l-1.494,3.792H248.163z"/>
	</g>
</g>
<g id="hour" display="none">
	<g display="inline">
		<circle cx="250" cy="250" r="15"/>
		<circle fill="none" stroke="#000000" stroke-miterlimit="10" cx="250" cy="250" r="250"/>
		<g>
			<polygon stroke="#000000" stroke-miterlimit="10" points="250,250 250.067,28.578 257.551,53.068 			"/>
			<polygon stroke="#000000" stroke-miterlimit="10" points="249.551,250 249.484,28.578 242,53.068 			"/>
		</g>
	</g>
</g>
<g id="minutes" display="none">
	<circle display="inline" cx="250" cy="250" r="15"/>
	<circle display="inline" fill="none" stroke="#000000" stroke-miterlimit="10" cx="250" cy="250" r="250"/>
	<g display="inline">
		<polygon fill="#666666" stroke="#000000" stroke-miterlimit="10" points="249.949,250 250,6.81 255.775,33.707 		"/>
		<polygon fill="#666666" stroke="#000000" stroke-miterlimit="10" points="249.602,250 249.551,6.81 243.775,33.707 		"/>
	</g>
</g>
<g id="seconds" display="none">
	<circle display="inline" fill="none" stroke="#000000" stroke-miterlimit="10" cx="250" cy="250" r="250"/>
	
		<line display="inline" fill="none" stroke="#C1272D" stroke-width="2" stroke-miterlimit="10" x1="250" y1="250" x2="250" y2="10"/>
	<circle display="inline" cx="250" cy="250" r="15"/>
	<circle display="inline" fill="#FFFFFF" cx="250" cy="250" r="7.5"/>
</g>
</svg>
