<?xml version="1.0" encoding="utf-8"?>
<!-- Generator: Adobe Illustrator 15.1.0, SVG Export Plug-In . SVG Version: 6.00 Build 0)  -->
<!DOCTYPE svg PUBLIC "-//W3C//DTD SVG 1.1//EN" "http://www.w3.org/Graphics/SVG/1.1/DTD/svg11.dtd">
<svg version="1.1" xmlns="http://www.w3.org/2000/svg" xmlns:xlink="http://www.w3.org/1999/xlink" x="0px" y="0px" width="500px"
	 height="500px" viewBox="0 0 500 500" enable-background="new 0 0 500 500" xml:space="preserve">
<g id="hashes">
	<g>
		<circle fill="none" stroke="#000000" stroke-miterlimit="10" cx="250" cy="250" r="250"/>
		<circle fill="#FFFFFF" cx="250" cy="250" r="250"/>
	</g>
	<g>
		<g>
			<line fill="none" stroke="#000000" stroke-width="4" stroke-miterlimit="10" x1="250" y1="0" x2="250" y2="500"/>
			<line fill="none" stroke="#000000" stroke-width="4" stroke-miterlimit="10" x1="0" y1="251" x2="500" y2="251"/>
		</g>
		<g>
			<g>
				<line fill="none" stroke="#000000" stroke-width="2" stroke-miterlimit="10" x1="125" y1="33.494" x2="375" y2="466.507"/>
				
					<line fill="none" stroke="#000000" stroke-width="2" stroke-miterlimit="10" x1="33.994" y1="375.866" x2="467.006" y2="125.866"/>
			</g>
			<g>
				
					<line fill="none" stroke="#000000" stroke-width="2" stroke-miterlimit="10" x1="33.561" y1="126.25" x2="466.573" y2="376.25"/>
				
					<line fill="none" stroke="#000000" stroke-width="2" stroke-miterlimit="10" x1="125.933" y1="468.257" x2="375.933" y2="35.244"/>
			</g>
		</g>
	</g>
	<circle fill="#FFFFFF" cx="250" cy="250" r="212.5"/>
</g>
<g id="numbers" display="none">
	<g display="inline">
		<path fill="#FF1D25" d="M337.514,97.121l0.641-1.445h1.658c1.451,0,2.354-0.225,2.702-0.678c0.347-0.451,0.813-2.014,1.398-4.688
			l2.346-11.85c0.33-1.711,0.498-2.866,0.498-3.468c0-0.727-0.696-1.147-2.086-1.259l-2.156-0.165l-0.023-1.445l10.259-1.303
			l-1.801,7.589l-2.322,11.716c-0.474,2.483-0.71,3.834-0.71,4.056c0,0.998,0.679,1.495,2.039,1.495h2.108l0.07,1.445H337.514z"/>
		<path fill="#FF1D25" d="M407.307,169.622l1.282-3.792c11.88-6.35,17.818-11.705,17.818-16.064c0-1.406-0.502-2.592-1.505-3.555
			c-1.004-0.963-2.238-1.445-3.709-1.445c-3.805,0-6.207,1.752-7.202,5.26h-1.445l0.736-5.426c3.331-0.854,6.182-1.28,8.552-1.28
			c2.94,0,5.271,0.557,7.002,1.67c1.729,1.114,2.594,2.61,2.594,4.491c0,2.021-0.813,3.783-2.439,5.283
			c-1.627,1.5-5.515,4.068-11.656,7.701l-5.735,3.365h17.888l-1.491,3.792H407.307z"/>
		<path fill="#FF1D25" d="M434.578,266.808l3.104-3.151c2.402,2.196,4.852,3.294,7.349,3.294c2.069,0,3.844-0.718,5.33-2.157
			c1.482-1.437,2.225-3.152,2.225-5.142c0-2.181-0.9-3.954-2.697-5.32c-1.803-1.366-4.143-2.049-7.016-2.049
			c-0.505,0-1.161,0.047-1.967,0.143l1.659-3.65c1.437,0,2.818,0.055,4.146,0.166c2.244-0.553,4.106-1.567,5.592-3.044
			c1.486-1.477,2.228-3.038,2.228-4.68c0-1.454-0.498-2.646-1.492-3.578c-0.997-0.932-2.275-1.398-3.841-1.398
			c-3.601,0-5.86,1.752-6.775,5.26h-1.469l0.78-5.308c3.412-0.932,6.352-1.397,8.814-1.397c2.593,0,4.675,0.494,6.246,1.48
			c1.569,0.988,2.354,2.295,2.354,3.921c0,3.491-3.221,6.564-9.666,9.218c4.899,1.516,7.345,4.289,7.345,8.317
			c0,2.922-1.355,5.481-4.062,7.677c-2.711,2.195-5.883,3.294-9.514,3.294C440.251,268.704,437.359,268.071,434.578,266.808z"/>
		<path fill="#FF1D25" d="M419.676,352.614L402,351.861l0.404-1.967l23.932-22.105l2.465-0.568l-4.432,22.359l7.061,0.314
			l-1.066,3.176l-6.611-0.281c-0.346,2.423-0.52,4.092-0.52,5.003c0,0.864,0.609,1.298,1.824,1.298h2.059l0.121,1.445H413.02
			l0.662-1.445h2.061c1.154,0,1.908-0.291,2.264-0.875C418.361,357.633,418.918,355.766,419.676,352.614z M420.32,349.4
			l3.336-16.773l-17.936,16.128L420.32,349.4z"/>
		<path fill="#FF1D25" d="M337.513,433.053l2.916-3.057c1.77,1.943,4.045,2.914,6.824,2.914c2.527,0,4.602-0.887,6.221-2.658
			c1.617-1.771,2.43-4.05,2.43-6.834c0-4.412-3.043-6.619-9.125-6.619c-1.137,0-2.406,0.126-3.814,0.378l3.104-15.567h18.41
			l-1.607,4.1h-15.451l-2.086,7.295c1.186-0.203,2.236-0.307,3.152-0.307c3.57,0,6.471,0.838,8.697,2.514
			c2.227,1.674,3.34,3.861,3.34,6.563c0,3.349-1.572,6.382-4.717,9.1c-3.141,2.717-6.656,4.075-10.543,4.075
			C342.734,434.948,340.152,434.315,337.513,433.053z"/>
		<path fill="#FF1D25" d="M261.67,430.906h-1.471c0.098-0.537,0.145-0.939,0.145-1.209c0-1.011-0.473-1.84-1.422-2.487
			c-0.949-0.648-2.172-0.972-3.672-0.972c-3.004,0-5.783,1.607-8.34,4.824c-2.561,3.215-4.078,7.004-4.549,11.365
			c3.141-4.174,6.609-6.261,10.398-6.261c2.213,0,4.053,0.743,5.521,2.228s2.203,3.35,2.203,5.592c0,3.76-1.361,7.1-4.086,10.022
			c-2.727,2.923-5.857,4.384-9.398,4.384c-3.063,0-5.498-1.062-7.307-3.188c-1.809-2.124-2.715-4.986-2.715-8.59
			c0-5.813,1.992-10.954,5.975-15.424c3.98-4.471,8.553-6.706,13.719-6.706c1.941,0,4.059,0.466,6.35,1.397L261.67,430.906z
			 M248.355,456.947c2.115,0,3.936-1.089,5.461-3.262c1.523-2.174,2.287-4.781,2.287-7.817c0-4.903-1.844-7.356-5.521-7.356
			c-2.371,0-4.408,0.994-6.115,2.978c-1.707,1.984-2.559,4.354-2.559,7.107c0,2.435,0.604,4.437,1.813,6.003
			S246.473,456.947,248.355,456.947z"/>
		<path fill="#FF1D25" d="M149.48,434.948c0.633-3.476,2.568-7.093,5.807-10.853l14.621-15.521l2.557-2.865h-19.5l1.658-4.1h22.299
			l-1.068,2.653c-12.982,13.839-19.918,23.868-20.803,30.093L149.48,434.948z"/>
		<path fill="#FF1D25" d="M80.824,346.835l-0.451-0.309c-2.211-1.548-3.318-3.578-3.318-6.09c0-2.496,1.24-4.706,3.721-6.636
			c2.48-1.926,5.324-2.889,8.533-2.889c2.273,0,4.123,0.539,5.555,1.621c1.428,1.082,2.145,2.478,2.145,4.184
			c0,3.254-2.844,6.459-8.531,9.62c3.949,2.479,5.926,5.165,5.926,8.057c0,2.653-1.393,5.055-4.172,7.202
			c-2.779,2.148-5.9,3.224-9.361,3.224c-2.621,0-4.818-0.714-6.586-2.144c-1.77-1.432-2.654-3.213-2.654-5.345
			C71.629,353.619,74.693,350.119,80.824,346.835z M82.008,347.83c-3.807,2.037-5.711,4.991-5.711,8.861
			c0,1.943,0.613,3.49,1.834,4.645c1.229,1.154,2.865,1.73,4.92,1.73c1.848,0,3.455-0.676,4.824-2.026
			c1.363-1.351,2.045-2.935,2.045-4.75c0-2.229-1.973-4.621-5.922-7.181L82.008,347.83z M87.031,345.484
			c4.012-2.48,6.018-5.087,6.018-7.821c0-1.421-0.529-2.61-1.588-3.565c-1.057-0.955-2.375-1.434-3.955-1.434
			c-1.754,0-3.248,0.602-4.48,1.802c-1.23,1.2-1.846,2.661-1.846,4.383c0,1.865,1.428,3.736,4.287,5.616L87.031,345.484z"/>
		<path fill="#FF1D25" d="M38.85,260.236h1.471l-0.025,0.975c0,2.471,1.693,3.705,5.072,3.705c2.986,0,5.762-1.613,8.33-4.841
			c2.566-3.227,4.086-7.033,4.563-11.413c-3.162,4.201-6.66,6.302-10.5,6.302c-2.244,0-4.107-0.754-5.592-2.263
			c-1.484-1.508-2.229-3.4-2.229-5.675c0-3.823,1.367-7.207,4.1-10.153c2.734-2.947,5.869-4.419,9.406-4.419
			c3.066,0,5.504,1.059,7.313,3.175s2.711,4.983,2.711,8.601c0,5.829-1.984,10.975-5.957,15.438
			c-3.975,4.461-8.561,6.693-13.758,6.693c-1.594,0-3.678-0.373-6.254-1.119L38.85,260.236z M52.145,234.206
			c-2.146,0-3.984,1.059-5.51,3.176c-1.525,2.117-2.287,4.66-2.287,7.63c0,4.881,1.875,7.322,5.617,7.322
			c2.432,0,4.514-0.968,6.244-2.903s2.594-4.252,2.594-6.954c0-2.401-0.623-4.379-1.873-5.936
			C55.682,234.985,54.086,234.206,52.145,234.206z"/>
		<path fill="#FF1D25" d="M61.957,172.742l0.639-1.445h1.658c1.455,0,2.355-0.225,2.701-0.678c0.35-0.451,0.816-2.014,1.398-4.688
			l2.346-11.85c0.334-1.711,0.498-2.866,0.498-3.468c0-0.727-0.697-1.147-2.084-1.259l-2.158-0.165l-0.023-1.445l10.26-1.303
			l-1.799,7.589l-2.322,11.716c-0.477,2.483-0.713,3.834-0.713,4.056c0,0.998,0.682,1.495,2.039,1.495h2.109l0.07,1.445H61.957z"/>
		<path fill="#FF1D25" d="M95.675,173.334c-3.193,0-5.715-0.92-7.572-2.761c-1.855-1.84-2.785-4.341-2.785-7.499
			c0-4.63,1.482-8.558,4.445-11.79c2.959-3.23,6.559-4.845,10.791-4.845c3.285,0,5.863,0.896,7.738,2.689
			c1.869,1.793,2.807,4.26,2.807,7.404c0,4.723-1.482,8.705-4.453,11.942C103.677,171.715,100.017,173.334,95.675,173.334z
			 M95.966,171.889c2.721,0,4.857-0.996,6.404-2.988c1.064-1.343,1.992-3.411,2.795-6.203c0.797-2.791,1.197-5.348,1.197-7.672
			c0-4.761-2.02-7.14-6.053-7.14c-3.004,0-5.465,1.605-7.381,4.813c-1.916,3.212-2.873,7.323-2.873,12.337
			C90.056,169.605,92.029,171.889,95.966,171.889z"/>
		<path fill="#FF1D25" d="M138.542,94.103l0.639-1.445h1.656c1.459,0,2.357-0.225,2.705-0.678c0.346-0.451,0.814-2.014,1.396-4.688
			l2.346-11.85c0.334-1.711,0.498-2.866,0.498-3.468c0-0.727-0.695-1.147-2.084-1.259l-2.156-0.165l-0.025-1.445l10.26-1.303
			l-1.799,7.589l-2.322,11.716c-0.475,2.483-0.713,3.834-0.713,4.056c0,0.998,0.68,1.495,2.041,1.495h2.107l0.072,1.445H138.542z"/>
		<path fill="#FF1D25" d="M159.583,94.103l0.639-1.445h1.66c1.451,0,2.354-0.225,2.703-0.678c0.344-0.451,0.813-2.014,1.396-4.688
			l2.346-11.85c0.33-1.711,0.496-2.866,0.496-3.468c0-0.727-0.693-1.147-2.084-1.259l-2.154-0.165l-0.025-1.445l10.26-1.303
			l-1.801,7.589l-2.322,11.716c-0.475,2.483-0.711,3.834-0.711,4.056c0,0.998,0.68,1.495,2.039,1.495h2.105l0.074,1.445H159.583z"/>
		<path fill="#FF1D25" d="M227.716,65.801l0.637-1.445h1.658c1.455,0,2.357-0.225,2.703-0.678c0.348-0.451,0.814-2.014,1.398-4.688
			l2.346-11.85c0.332-1.711,0.496-2.866,0.496-3.468c0-0.727-0.695-1.147-2.086-1.259l-2.154-0.165l-0.023-1.445l10.258-1.303
			l-1.799,7.589l-2.322,11.716c-0.477,2.483-0.713,3.834-0.713,4.056c0,0.998,0.684,1.495,2.039,1.495h2.109l0.07,1.445H227.716z"/>
		<path fill="#FF1D25" d="M248.163,65.801l1.279-3.792c11.881-6.35,17.82-11.705,17.82-16.064c0-1.406-0.502-2.592-1.506-3.555
			c-1.002-0.963-2.238-1.445-3.709-1.445c-3.807,0-6.207,1.752-7.201,5.26h-1.447l0.734-5.426c3.332-0.854,6.186-1.28,8.557-1.28
			c2.936,0,5.27,0.557,7,1.67c1.73,1.114,2.594,2.61,2.594,4.491c0,2.021-0.813,3.783-2.441,5.283
			c-1.625,1.5-5.512,4.068-11.658,7.701l-5.732,3.365h17.891l-1.494,3.792H248.163z"/>
	</g>
</g>
<g id="Layer_6">
	<g>
		<path stroke="#000000" stroke-miterlimit="10" d="M340.635,75.57l4.598-3.855c1.117,0.453,1.942,1.065,2.476,1.836
			s0.801,1.769,0.801,2.992v15.364c0,0.428,0.074,0.747,0.22,0.955c0.257,0.379,0.735,0.826,1.432,1.34l2-1.634l0.588,0.625
			l-4.855,3.928l-4.452-2.918l1.23-1.634V78.819c0-0.93-0.062-1.572-0.184-1.927c-0.196-0.587-0.491-1.053-0.884-1.396
			c-0.282-0.232-0.528-0.349-0.736-0.349c-0.245,0-0.583,0.178-1.012,0.533c-0.257,0.208-0.478,0.379-0.662,0.514L340.635,75.57z"/>
		<path stroke="#000000" stroke-miterlimit="10" d="M412.043,149.496l7.637-5.728l8.848,5.318c0.049,0.709,0.074,1.303,0.074,1.78
			c0,2.004-0.551,3.717-1.652,5.135c-1.102,1.418-3.567,3.209-7.398,5.373c-1.722,0.978-2.936,1.764-3.637,2.358
			c-0.703,0.593-1.335,1.318-1.896,2.174c1.491-0.661,2.791-1.123,3.897-1.386s2.198-0.395,3.275-0.395
			c0.917,0,1.855,0.07,2.815,0.208c0.961,0.137,1.691,0.276,2.191,0.414l2.845,0.94l-3.194,3.487
			c-1.909-0.668-3.213-1.071-3.91-1.208c-1.102-0.235-2.141-0.353-3.12-0.353c-1.86,0-3.886,0.427-6.076,1.282
			c-0.465,0.186-0.734,0.278-0.808,0.278c-0.074,0-0.129-0.024-0.166-0.074c-0.049-0.062-0.072-0.153-0.072-0.276
			c0-0.59,0.201-1.308,0.605-2.154c0.538-1.154,1.315-2.289,2.331-3.406c0.722-0.807,1.897-1.87,3.524-3.191
			c1.627-1.32,2.754-2.323,3.378-3.008c0.868-0.965,1.538-1.974,2.01-3.025c0.471-1.052,0.706-2.17,0.706-3.356
			c0-1.773-0.666-3.228-1.997-4.366l-7.618,5.828L412.043,149.496z"/>
		<path stroke="#000000" stroke-miterlimit="10" d="M447.227,238.297l8.618,3.763c0.073,0.453,0.11,0.856,0.11,1.211
			c0,1.481-0.453,2.775-1.358,3.883c-0.905,1.107-2.11,2.022-3.616,2.744c2.043,0.465,3.582,1.273,4.616,2.423
			s1.552,2.386,1.552,3.708c0,1.407-0.575,2.674-1.724,3.799c-1.479,1.469-4.21,2.76-8.194,3.874l-7.361-5.69l2.637-2.646
			l8.193,6.288c0.682-0.609,1.183-1.271,1.505-1.986s0.483-1.589,0.483-2.627c0-1.99-0.572-3.573-1.717-4.751
			c-1.145-1.178-2.676-1.767-4.598-1.767c-0.612,0-1.273,0.055-1.982,0.165v-1.34h0.367c2.129,0,3.781-0.575,4.955-1.724
			c1.176-1.149,1.764-2.727,1.764-4.731c0-0.808-0.126-1.373-0.377-1.697c-0.25-0.324-0.54-0.486-0.869-0.486
			c-0.342,0-0.758,0.189-1.246,0.569l-0.293,0.22l-5.02,3.568l-2.412-2.475L447.227,238.297z"/>
		<path stroke="#000000" stroke-miterlimit="10" d="M427.533,349.503l0.697,3.286h-4.479v3.8l1.119,0.55
			c0.404,0.184,0.68,0.276,0.826,0.276c0.209,0,0.429-0.095,0.661-0.285l0.643-0.541l0.532,0.643l-4.415,3.671l-4.378-2.734
			l1.175-1.579v-3.8h-8.72l-0.77-3.561l10.261-13.731c0.868,0.122,1.597,0.558,2.185,1.304c0.587,0.746,0.881,1.793,0.881,3.139
			v9.563H427.533z M419.915,349.503v-7.669c0-0.71-0.085-1.254-0.253-1.633c-0.168-0.38-0.428-0.674-0.777-0.882l-7.61,10.184
			H419.915z"/>
		<path stroke="#000000" stroke-miterlimit="10" d="M346.394,405.742h11.421l-1.395,3.524h-9.71l-1.397,8.657l7.779-5.229
			c2.045,0.894,3.592,2.067,4.64,3.523c1.047,1.456,1.571,3.047,1.571,4.772c0,2.203-0.73,4.23-2.189,6.084
			c-1.459,1.854-3.936,3.102-7.43,3.742l-6.994-4.203l2.629-2.852l8.385,4.889c0.82-0.685,1.395-1.339,1.726-1.963
			c0.501-0.93,0.752-1.902,0.752-2.918c0-1.688-0.517-3.205-1.551-4.551c-1.035-1.346-2.683-2.41-4.947-3.193l-5.51,3.671
			L346.394,405.742z"/>
		<path stroke="#000000" stroke-miterlimit="10" d="M257.205,436.236l-2.603,3.276l-6.767-3.184
			c-0.934,1.335-1.597,2.623-1.991,3.86c-0.541,1.742-0.811,3.439-0.811,5.094c0,0.43,0.024,0.938,0.073,1.526l8.315-5.524
			c1.713,0.685,2.992,1.596,3.836,2.734s1.267,2.436,1.267,3.892c0,1.786-0.513,3.396-1.54,4.827
			c-1.468,2.044-3.753,3.929-6.858,5.654c-2.916-0.991-5.087-2.441-6.514-4.35c-1.427-1.91-2.141-4.205-2.141-6.885
			c0-2.02,0.342-3.793,1.028-5.323c0.685-1.529,1.747-3.089,3.186-4.681c1.438-1.591,2.977-2.979,4.617-4.167L257.205,436.236z
			 M245.237,447.786c0.476,1.921,1.466,3.517,2.969,4.789c1.502,1.272,3.322,2.079,5.461,2.421c1.221-1.297,1.831-2.759,1.831-4.387
			c0-1.235-0.453-2.395-1.358-3.478c-0.906-1.083-2.301-1.919-4.184-2.507L245.237,447.786z"/>
		<path stroke="#000000" stroke-miterlimit="10" d="M151.012,405.741h13.804v0.991c-1.774,2.02-3.151,3.824-4.13,5.416
			c-1.518,2.483-2.702,5.145-3.552,7.984c-0.851,2.839-1.325,5.818-1.423,8.939l-5.158,1.744c0.013-1.334,0.177-2.638,0.494-3.91
			c0.561-2.215,1.385-4.43,2.47-6.646c0.83-1.7,1.97-3.542,3.421-5.524c0.524-0.723,2.031-2.539,4.519-5.452h-7.321
			c-1.478,0-2.615,0.247-3.414,0.743c-0.799,0.496-1.529,1.374-2.187,2.635h-0.937L151.012,405.741z"/>
		<path stroke="#000000" stroke-miterlimit="10" d="M78.191,335.497h1.413c2.676,0,4.676,0.526,5.996,1.581
			c1.32,1.053,1.98,2.223,1.98,3.51c0,0.857-0.3,1.703-0.899,2.535c-0.6,0.834-1.554,1.717-2.864,2.646
			c1.346,0.473,2.362,1.088,3.048,1.846c1.028,1.139,1.542,2.393,1.542,3.762c0,1.457-0.514,2.867-1.542,4.23
			c-1.028,1.364-3.206,3.129-6.534,5.295h-0.662c-2.533,0-4.506-0.627-5.92-1.879c-1.413-1.254-2.12-2.723-2.12-4.41
			c0-1.123,0.373-2.199,1.12-3.227c0.747-1.026,1.646-1.932,2.698-2.713c-1.003-0.365-1.777-0.918-2.322-1.658
			c-0.545-0.74-0.817-1.551-0.817-2.432c0-1.175,0.41-2.447,1.232-3.818C74.361,339.395,75.911,337.639,78.191,335.497z
			 M76.493,348.941c-0.758,0.647-1.327,1.281-1.707,1.898c-0.379,0.617-0.568,1.219-0.568,1.807c0,1.051,0.538,1.98,1.617,2.787
			c1.408,1.063,3.363,1.596,5.863,1.596c1.66,0,2.913-0.364,3.756-1.093c0.844-0.728,1.264-1.551,1.264-2.469
			c0-0.6-0.214-1.178-0.643-1.734c-0.428-0.558-1.26-1.05-2.496-1.478c-0.844-0.294-2.215-0.568-4.111-0.823
			C78.072,349.238,77.081,349.074,76.493,348.941z M75.924,339.004c-0.379,0.439-0.664,0.896-0.854,1.367s-0.285,0.963-0.285,1.477
			c0,0.906,0.367,1.622,1.102,2.148c0.502,0.355,1.389,0.619,2.662,0.792c0.918,0.122,2.307,0.358,4.167,0.703
			c0.71-0.429,1.263-0.925,1.661-1.489c0.397-0.563,0.597-1.114,0.597-1.653c0-0.625-0.27-1.214-0.808-1.765
			c-0.539-0.551-1.39-0.938-2.552-1.158C80.747,339.255,78.848,339.113,75.924,339.004z"/>
		<path stroke="#000000" stroke-miterlimit="10" d="M43.407,261.277l2.598-3.287l6.832,3.11c0.92-1.403,1.561-2.703,1.924-3.899
			c0.545-1.781,0.818-3.502,0.818-5.161c0-0.378-0.043-0.866-0.129-1.464l-8.316,5.636c-1.271-0.625-2.141-1.126-2.605-1.505
			c-0.748-0.6-1.369-1.358-1.863-2.276c-0.496-0.918-0.744-1.928-0.744-3.029c0-1.799,0.656-3.518,1.967-5.158
			c1.605-1.995,3.736-3.727,6.395-5.195c2.824,0.808,4.992,2.188,6.5,4.14c1.512,1.952,2.266,4.298,2.266,7.04
			c0,2.068-0.385,3.978-1.154,5.727c-0.586,1.334-1.561,2.75-2.922,4.25c-1.363,1.499-2.924,2.916-4.682,4.25L43.407,261.277z
			 M55.284,249.694c-0.941-3.867-3.75-6.277-8.43-7.231c-0.605,0.709-1.061,1.419-1.369,2.129s-0.463,1.425-0.463,2.146
			c0,0.869,0.217,1.725,0.652,2.569c0.434,0.844,1.066,1.566,1.896,2.165c0.623,0.453,1.613,0.924,2.971,1.414L55.284,249.694z"/>
		<path stroke="#000000" stroke-miterlimit="10" d="M67.431,150.744l4.6-3.855c1.115,0.453,1.941,1.065,2.477,1.836
			c0.531,0.771,0.799,1.769,0.799,2.992v15.364c0,0.428,0.072,0.747,0.219,0.955c0.258,0.379,0.734,0.826,1.434,1.34l2-1.634
			l0.588,0.625l-4.855,3.928l-4.451-2.918l1.23-1.634v-13.749c0-0.93-0.063-1.572-0.186-1.927c-0.193-0.587-0.49-1.053-0.883-1.396
			c-0.283-0.232-0.527-0.349-0.734-0.349c-0.248,0-0.584,0.178-1.014,0.533c-0.258,0.208-0.479,0.379-0.662,0.514L67.431,150.744z"
			/>
		<path stroke="#000000" stroke-miterlimit="10" d="M92.409,146.889c2.781,0.955,4.939,2.481,6.484,4.58
			c1.541,2.099,2.313,4.567,2.313,7.407c0,2.79-0.717,5.327-2.15,7.608c-1.434,2.283-3.375,4.219-5.826,5.81
			c-1.756-0.413-3.348-1.195-4.777-2.346c-1.43-1.15-2.523-2.582-3.277-4.296c-0.754-1.713-1.133-3.494-1.133-5.342
			c0-2.644,0.76-5.215,2.277-7.711C87.837,150.102,89.868,148.198,92.409,146.889z M89.235,150.267
			c-1.699,1.921-2.549,4.234-2.549,6.938c0,1.909,0.41,3.708,1.229,5.396c0.82,1.689,1.994,3.084,3.518,4.186
			c1.523,1.101,3.082,1.768,4.672,2c0.889-1.211,1.52-2.346,1.895-3.405c0.377-1.059,0.563-2.23,0.563-3.515
			c0-1.762-0.355-3.442-1.072-5.039c-0.715-1.597-1.791-2.949-3.221-4.057C92.835,151.665,91.159,150.829,89.235,150.267z"/>
		<path stroke="#000000" stroke-miterlimit="10" d="M143.943,72.104l4.6-3.855c1.115,0.453,1.941,1.065,2.477,1.836
			c0.531,0.771,0.799,1.769,0.799,2.992v15.364c0,0.428,0.074,0.747,0.221,0.955c0.258,0.379,0.734,0.826,1.432,1.34l2-1.634
			l0.588,0.625l-4.854,3.928l-4.453-2.918l1.23-1.634V75.353c0-0.93-0.061-1.572-0.184-1.927c-0.195-0.587-0.492-1.053-0.883-1.396
			c-0.283-0.232-0.529-0.349-0.736-0.349c-0.246,0-0.584,0.178-1.012,0.533c-0.26,0.208-0.48,0.379-0.662,0.514L143.943,72.104z"/>
		<path stroke="#000000" stroke-miterlimit="10" d="M163.107,72.104l4.6-3.855c1.115,0.453,1.941,1.065,2.477,1.836
			c0.531,0.771,0.799,1.769,0.799,2.992v15.364c0,0.428,0.074,0.747,0.221,0.955c0.258,0.379,0.734,0.826,1.432,1.34l2-1.634
			l0.588,0.625l-4.854,3.928l-4.453-2.918l1.23-1.634V75.353c0-0.93-0.061-1.572-0.184-1.927c-0.197-0.587-0.492-1.053-0.885-1.396
			c-0.281-0.232-0.527-0.349-0.734-0.349c-0.248,0-0.584,0.178-1.012,0.533c-0.26,0.208-0.48,0.379-0.664,0.514L163.107,72.104z"/>
		<path stroke="#000000" stroke-miterlimit="10" d="M233.021,43.803l4.6-3.855c1.115,0.453,1.941,1.065,2.477,1.836
			c0.531,0.771,0.799,1.769,0.799,2.992V60.14c0,0.428,0.074,0.747,0.221,0.955c0.258,0.379,0.734,0.826,1.432,1.34l2-1.634
			l0.588,0.625l-4.854,3.928l-4.453-2.918l1.23-1.634V47.052c0-0.93-0.061-1.572-0.184-1.927c-0.195-0.587-0.492-1.053-0.883-1.396
			c-0.283-0.232-0.529-0.349-0.736-0.349c-0.246,0-0.584,0.178-1.012,0.533c-0.26,0.208-0.48,0.379-0.662,0.514L233.021,43.803z"/>
		<path stroke="#000000" stroke-miterlimit="10" d="M249.981,45.675l7.637-5.728l8.848,5.318c0.049,0.709,0.074,1.303,0.074,1.78
			c0,2.004-0.551,3.717-1.652,5.135c-1.102,1.418-3.568,3.209-7.398,5.373c-1.721,0.978-2.936,1.764-3.637,2.358
			c-0.703,0.593-1.336,1.318-1.896,2.174c1.492-0.661,2.791-1.123,3.898-1.386s2.199-0.395,3.275-0.395
			c0.916,0,1.854,0.07,2.814,0.208c0.961,0.137,1.691,0.276,2.191,0.414l2.844,0.94l-3.193,3.487
			c-1.91-0.668-3.213-1.071-3.91-1.208c-1.102-0.235-2.141-0.353-3.119-0.353c-1.861,0-3.887,0.427-6.078,1.282
			c-0.465,0.186-0.734,0.278-0.807,0.278c-0.074,0-0.129-0.024-0.166-0.074c-0.047-0.062-0.072-0.153-0.072-0.276
			c0-0.59,0.201-1.308,0.605-2.154c0.537-1.154,1.316-2.289,2.33-3.406c0.723-0.807,1.898-1.87,3.525-3.191
			c1.627-1.32,2.754-2.323,3.379-3.008c0.867-0.965,1.539-1.974,2.01-3.025c0.471-1.052,0.707-2.17,0.707-3.356
			c0-1.773-0.666-3.228-1.998-4.366l-7.617,5.828L249.981,45.675z"/>
	</g>
</g>
<g id="hour" display="none">
	<g display="inline">
		<circle cx="250" cy="250" r="15"/>
		<circle fill="none" stroke="#000000" stroke-miterlimit="10" cx="250" cy="250" r="250"/>
		<g>
			<polygon stroke="#000000" stroke-miterlimit="10" points="250,250 250.067,28.578 257.551,53.068 			"/>
			<polygon stroke="#000000" stroke-miterlimit="10" points="249.551,250 249.484,28.578 242,53.068 			"/>
		</g>
	</g>
</g>
<g id="minutes" display="none">
	<circle display="inline" cx="250" cy="250" r="15"/>
	<circle display="inline" fill="none" stroke="#000000" stroke-miterlimit="10" cx="250" cy="250" r="250"/>
	<g display="inline">
		<polygon fill="#666666" stroke="#000000" stroke-miterlimit="10" points="249.949,250 250,6.81 255.775,33.707 		"/>
		<polygon fill="#666666" stroke="#000000" stroke-miterlimit="10" points="249.602,250 249.551,6.81 243.775,33.707 		"/>
	</g>
</g>
<g id="seconds" display="none">
	<circle display="inline" fill="none" stroke="#000000" stroke-miterlimit="10" cx="250" cy="250" r="250"/>
	
		<line display="inline" fill="none" stroke="#C1272D" stroke-width="2" stroke-miterlimit="10" x1="250" y1="250" x2="250" y2="10"/>
	<circle display="inline" cx="250" cy="250" r="15"/>
	<circle display="inline" fill="#FFFFFF" cx="250" cy="250" r="7.5"/>
</g>
</svg>
